<svg width="50" height="500" xmlns="http://www.w3.org/2000/svg">
  <!-- Define a filter for a pencil-like effect -->
  <defs>
    <filter id="pencil-effect">
      <feTurbulence type="fractalNoise" baseFrequency="0.2" numOctaves="2" result="noise"/>
      <feDisplacementMap in="SourceGraphic" in2="noise" scale="1.5"/>
    </filter>
  </defs>

  <!-- Background with border -->
  <rect width="50" height="500" fill="white" stroke="black" stroke-width="2"/>

  <!-- Major tick marks with pencil-like effect -->
  <g stroke="black" stroke-width="2" filter="url(#pencil-effect)">
    <line x1="0" y1="0" x2="20" y2="0"/>
    <line x1="0" y1="50" x2="20" y2="50"/>
    <line x1="0" y1="100" x2="20" y2="100"/>
    <line x1="0" y1="150" x2="20" y2="150"/>
    <line x1="0" y1="200" x2="20" y2="200"/>
    <line x1="0" y1="250" x2="20" y2="250"/>
    <line x1="0" y1="300" x2="20" y2="300"/>
    <line x1="0" y1="350" x2="20" y2="350"/>
    <line x1="0" y1="400" x2="20" y2="400"/>
    <line x1="0" y1="450" x2="20" y2="450"/>
    <line x1="0" y1="500" x2="20" y2="500"/>
  </g>

  <!-- Minor tick marks with pencil-like effect -->
  <g stroke="black" stroke-width="1" filter="url(#pencil-effect)">
    <line x1="0" y1="10" x2="10" y2="10"/>
    <line x1="0" y1="20" x2="10" y2="20"/>
    <line x1="0" y1="30" x2="10" y2="30"/>
    <line x1="0" y1="40" x2="10" y2="40"/>
    <line x1="0" y1="60" x2="10" y2="60"/>
    <line x1="0" y1="70" x2="10" y2="70"/>
    <line x1="0" y1="80" x2="10" y2="80"/>
    <line x1="0" y1="90" x2="10" y2="90"/>
    <line x1="0" y1="110" x2="10" y2="110"/>
    <line x1="0" y1="120" x2="10" y2="120"/>
    <line x1="0" y1="130" x2="10" y2="130"/>
    <line x1="0" y1="140" x2="10" y2="140"/>
    <line x1="0" y1="160" x2="10" y2="160"/>
    <line x1="0" y1="170" x2="10" y2="170"/>
    <line x1="0" y1="180" x2="10" y2="180"/>
    <line x1="0" y1="190" x2="10" y2="190"/>
    <line x1="0" y1="210" x2="10" y2="210"/>
    <line x1="0" y1="220" x2="10" y2="220"/>
    <line x1="0" y1="230" x2="10" y2="230"/>
    <line x1="0" y1="240" x2="10" y2="240"/>
    <line x1="0" y1="260" x2="10" y2="260"/>
    <line x1="0" y1="270" x2="10" y2="270"/>
    <line x1="0" y1="280" x2="10" y2="280"/>
    <line x1="0" y1="290" x2="10" y2="290"/>
    <line x1="0" y1="310" x2="10" y2="310"/>
    <line x1="0" y1="320" x2="10" y2="320"/>
    <line x1="0" y1="330" x2="10" y2="330"/>
    <line x1="0" y1="340" x2="10" y2="340"/>
    <line x1="0" y1="360" x2="10" y2="360"/>
    <line x1="0" y1="370" x2="10" y2="370"/>
    <line x1="0" y1="380" x2="10" y2="380"/>
    <line x1="0" y1="390" x2="10" y2="390"/>
    <line x1="0" y1="410" x2="10" y2="410"/>
    <line x1="0" y1="420" x2="10" y2="420"/>
    <line x1="0" y1="430" x2="10" y2="430"/>
    <line x1="0" y1="440" x2="10" y2="440"/>
    <line x1="0" y1="460" x2="10" y2="460"/>
    <line x1="0" y1="470" x2="10" y2="470"/>
    <line x1="0" y1="480" x2="10" y2="480"/>
    <line x1="0" y1="490" x2="10" y2="490"/>
  </g>
</svg>